<svg width="100" height="199" viewBox="0 0 100 199" fill="none" xmlns="http://www.w3.org/2000/svg">
<path fill-rule="evenodd" clip-rule="evenodd" d="M21 45.5C21 39.701 16.299 35 10.5 35V35C4.70101 35 0 39.701 0 45.5V85C0 112.614 22.3858 135 50 135V135C77.6142 135 100 112.614 100 85V45.5C100 39.701 95.299 35 89.5 35V35C83.701 35 79 39.701 79 45.5V85C79 101.016 66.0163 114 50 114V114C33.9837 114 21 101.016 21 85V45.5Z" fill="black"/>
<rect x="39" y="118" width="22" height="81" rx="11" fill="black"/>
<rect x="20" width="60" height="115" rx="30" fill="#E5E5E5"/>
</svg>
