<svg width="499" height="242" viewBox="0 0 499 242" fill="none" xmlns="http://www.w3.org/2000/svg">
<path fill-rule="evenodd" clip-rule="evenodd" d="M21 48.5C21 42.701 16.299 38 10.5 38V38C4.70101 38 0 42.701 0 48.5V88C0 115.614 22.3858 138 50 138V138C77.6142 138 100 115.614 100 88V48.5C100 42.701 95.299 38 89.5 38V38C83.701 38 79 42.701 79 48.5V88C79 104.016 66.0163 117 50 117V117C33.9837 117 21 104.016 21 88V48.5Z" fill="#4F28EC"/>
<rect x="39" y="121" width="22" height="81" rx="11" fill="#4F28EC"/>
<rect x="20" y="3" width="60" height="115" rx="30" fill="#53D4F4"/>
<path d="M187 196.8C184.067 196.8 181.933 196.2 180.6 195C179.4 193.8 178.667 191.933 178.4 189.4L179.2 179.4C177.867 181.533 175.8 184 173 186.8C170.2 189.467 166.533 191.867 162 194C157.467 196 151.933 197 145.4 197C139 197 133 195.733 127.4 193.2C121.933 190.667 117.067 187.133 112.8 182.6C108.667 178.067 105.4 172.867 103 167C100.733 161.133 99.6 154.867 99.6 148.2C99.6 141.667 100.733 135.533 103 129.8C105.4 123.933 108.733 118.8 113 114.4C117.267 110 122.133 106.533 127.6 104C133.2 101.467 139.133 100.2 145.4 100.2C151.267 100.2 156.267 101 160.4 102.6C164.533 104.067 168.067 106.067 171 108.6C174.067 111 176.733 113.733 179 116.8L178.6 108.4C178.467 105.467 179.067 103.4 180.4 102.2C181.867 100.867 184.133 100.2 187.2 100.2C189.733 100.2 191.533 100.6 192.6 101.4C193.8 102.2 194.6 103.333 195 104.8C195.4 106.267 195.6 108.067 195.6 110.2V187.4C195.6 189.267 195.4 190.933 195 192.4C194.6 193.867 193.8 194.933 192.6 195.6C191.4 196.4 189.533 196.8 187 196.8ZM148.4 180.2C153.733 180.2 158.6 178.8 163 176C167.533 173.2 171.067 169.467 173.6 164.8C176.267 160 177.6 154.533 177.6 148.4C177.6 142.133 176.2 136.667 173.4 132C170.733 127.2 167.133 123.467 162.6 120.8C158.2 118 153.333 116.6 148 116.6C141.733 116.6 136.267 118.067 131.6 121C127.067 123.8 123.467 127.6 120.8 132.4C118.133 137.2 116.8 142.667 116.8 148.8C116.8 154.8 118.133 160.2 120.8 165C123.467 169.667 127.133 173.4 131.8 176.2C136.6 178.867 142.133 180.2 148.4 180.2ZM228.244 197C225.71 197 223.777 196.6 222.444 195.8C221.244 195.133 220.444 194.133 220.044 192.8C219.777 191.333 219.644 189.667 219.644 187.8V109C219.644 107 219.844 105.333 220.244 104C220.644 102.667 221.444 101.733 222.644 101.2C223.844 100.533 225.777 100.2 228.444 100.2C230.844 100.2 232.644 100.533 233.844 101.2C235.177 101.733 236.044 102.6 236.444 103.8C236.977 104.867 237.244 106.133 237.244 107.6L236.444 113.6C237.377 111.867 238.444 110.133 239.644 108.4C240.977 106.667 242.577 105.133 244.444 103.8C246.444 102.333 248.777 101.133 251.444 100.2C254.244 99.2667 257.644 98.8 261.644 98.8C263.644 98.8 265.51 99 267.244 99.4C269.11 99.6667 270.844 100.133 272.444 100.8C274.177 101.467 275.644 102.267 276.844 103.2C278.044 104 278.977 104.933 279.644 106C280.444 106.933 280.844 108.067 280.844 109.4C280.844 112.333 279.91 114.867 278.044 117C276.177 119 274.244 120 272.244 120C270.51 120 269.244 119.8 268.444 119.4C267.644 118.867 266.844 118.333 266.044 117.8C265.377 117.267 264.377 116.8 263.044 116.4C261.71 115.867 259.577 115.6 256.644 115.6C254.644 115.6 252.51 116 250.244 116.8C248.11 117.6 246.044 118.8 244.044 120.4C242.044 121.867 240.377 123.8 239.044 126.2C237.844 128.6 237.244 131.4 237.244 134.6V188.2C237.244 190.067 237.044 191.667 236.644 193C236.244 194.333 235.377 195.333 234.044 196C232.844 196.667 230.91 197 228.244 197ZM309.494 196.8C306.96 196.8 305.027 196.4 303.694 195.6C302.494 194.933 301.694 193.933 301.294 192.6C301.027 191.267 300.894 189.667 300.894 187.8V108.4C300.894 106.667 301.094 105.2 301.494 104C301.894 102.8 302.694 101.867 303.894 101.2C305.227 100.533 307.16 100.2 309.694 100.2C311.694 100.2 313.227 100.467 314.294 101C315.494 101.4 316.294 102 316.694 102.8C317.227 103.6 317.56 104.467 317.694 105.4C317.827 106.333 317.894 107.2 317.894 108L317.494 117.2C318.827 114.933 320.494 112.8 322.494 110.8C324.494 108.667 326.827 106.8 329.494 105.2C332.16 103.467 335.027 102.133 338.094 101.2C341.294 100.267 344.694 99.8 348.294 99.8C354.16 99.8 359.56 100.867 364.494 103C369.427 105 373.627 108 377.094 112C380.694 115.867 383.427 120.533 385.294 126C387.294 131.467 388.294 137.667 388.294 144.6V188C388.294 189.867 388.094 191.467 387.694 192.8C387.427 194.133 386.627 195.133 385.294 195.8C384.094 196.467 382.227 196.8 379.694 196.8C377.027 196.8 375.027 196.4 373.694 195.6C372.494 194.933 371.694 193.933 371.294 192.6C370.894 191.267 370.694 189.667 370.694 187.8V144.4C370.694 138.8 369.76 133.933 367.894 129.8C366.027 125.667 363.227 122.467 359.494 120.2C355.76 117.8 351.027 116.6 345.294 116.6C339.827 116.6 335.027 117.8 330.894 120.2C326.894 122.467 323.76 125.667 321.494 129.8C319.36 133.933 318.294 138.8 318.294 144.4V188C318.294 189.867 318.094 191.467 317.694 192.8C317.294 194.133 316.427 195.133 315.094 195.8C313.894 196.467 312.027 196.8 309.494 196.8ZM427.367 235.8C424.167 234.467 422.301 232.933 421.767 231.2C421.234 229.467 421.701 227.067 423.167 224L476.167 105C477.634 101.933 479.167 100.067 480.767 99.4C482.501 98.6 484.901 98.8667 487.967 100.2C491.167 101.667 492.967 103.267 493.367 105C493.901 106.733 493.501 109.067 492.167 112L438.767 231.6C437.434 234.667 435.967 236.467 434.367 237C432.767 237.533 430.434 237.133 427.367 235.8ZM447.167 184.2L401.367 113.6C399.634 110.933 398.967 108.733 399.367 107C399.767 105.133 401.301 103.333 403.967 101.6C406.901 99.7333 409.234 99.0667 410.967 99.6C412.834 100 414.701 101.533 416.567 104.2L455.367 165.2L447.167 184.2Z" fill="#4F28EC"/>
</svg>
