<?xml version="1.0" standalone="no"?>
<!DOCTYPE svg PUBLIC "-//W3C//DTD SVG 20010904//EN"
 "http://www.w3.org/TR/2001/REC-SVG-20010904/DTD/svg10.dtd">
<svg version="1.0" xmlns="http://www.w3.org/2000/svg"
 width="500.000000pt" height="500.000000pt" viewBox="0 0 500.000000 500.000000"
 preserveAspectRatio="xMidYMid meet">
<metadata>
Created by potrace 1.14, written by Peter Selinger 2001-2017
</metadata>
<g transform="translate(0.000000,500.000000) scale(0.100000,-0.100000)"
fill="#000000" stroke="none">
<path d="M2329 4966 c-2 -2 -38 -7 -79 -10 -66 -6 -98 -10 -210 -30 -75 -13
-264 -62 -320 -83 -8 -3 -19 -7 -25 -8 -79 -19 -403 -173 -505 -242 -24 -15
-57 -37 -74 -47 -40 -25 -189 -140 -241 -186 -64 -56 -217 -212 -255 -259 -19
-24 -40 -48 -46 -55 -21 -22 -120 -162 -167 -236 -142 -221 -292 -600 -332
-842 -3 -18 -10 -58 -15 -88 -25 -143 -34 -482 -17 -635 55 -489 241 -934 549
-1312 332 -408 808 -706 1331 -832 110 -26 176 -39 302 -57 93 -13 443 -11
555 2 306 38 539 108 815 244 247 122 440 259 631 446 150 148 288 319 369
459 16 28 32 52 36 55 17 12 161 325 194 420 85 247 129 466 141 713 l6 117
-191 0 -191 0 -1 -32 c-4 -91 -16 -237 -24 -278 -2 -8 -6 -35 -10 -60 -8 -55
-29 -141 -58 -235 -12 -38 -22 -72 -22 -75 -1 -3 -5 -14 -10 -25 -85 -212
-135 -312 -223 -445 -31 -47 -59 -87 -62 -90 -3 -3 -27 -33 -53 -67 -46 -61
-185 -206 -262 -274 -58 -51 -276 -209 -289 -209 -3 0 -28 -14 -56 -31 -168
-103 -502 -217 -715 -244 -27 -4 -61 -9 -75 -11 -14 -3 -97 -7 -185 -8 -312
-7 -561 39 -845 157 -245 101 -470 250 -659 437 -83 82 -118 121 -218 244 -38
47 -129 196 -177 289 -155 301 -225 586 -231 927 -5 394 93 766 290 1094 269
447 672 768 1164 925 327 105 703 126 1046 57 362 -72 735 -263 999 -510 33
-31 61 -56 63 -56 5 0 263 259 263 265 0 26 -245 229 -399 329 -254 166 -617
309 -903 356 -35 5 -74 12 -88 15 -67 12 -151 17 -326 21 -105 2 -193 2 -195
0z"/>
<path d="M2369 4336 c-2 -2 -37 -6 -76 -10 -40 -3 -114 -15 -165 -26 -51 -12
-102 -23 -112 -25 -73 -16 -203 -67 -331 -131 -366 -181 -647 -459 -828 -820
-81 -162 -154 -388 -172 -534 -4 -30 -11 -82 -15 -115 -9 -64 -5 -359 5 -410
3 -16 12 -68 21 -115 59 -334 245 -687 496 -941 123 -124 369 -309 410 -309 8
0 24 19 36 42 12 24 39 75 61 113 22 39 40 75 41 81 0 6 -19 21 -42 34 -50 28
-177 119 -226 164 -36 32 -116 114 -171 176 -128 143 -281 453 -317 645 -2 11
-6 31 -9 45 -28 145 -37 314 -22 460 45 444 297 867 670 1122 67 46 72 49 162
98 120 64 343 139 464 155 216 29 375 25 571 -15 576 -117 1043 -568 1189
-1147 20 -80 24 -103 37 -207 26 -223 -7 -489 -90 -709 -116 -309 -336 -583
-611 -762 -66 -43 -232 -127 -290 -146 -22 -7 -44 -16 -50 -20 -5 -4 -25 -10
-42 -14 -18 -3 -33 -9 -33 -11 0 -8 72 -258 76 -266 3 -4 41 6 87 21 423 145
780 440 1005 834 34 59 62 111 62 114 0 3 11 29 25 58 63 135 117 330 139 510
14 107 14 394 1 460 -12 63 -15 81 -21 120 -7 48 -45 186 -74 270 -51 145
-198 413 -276 502 -10 11 -35 41 -54 64 -87 108 -246 249 -390 346 -193 130
-494 247 -713 278 -27 3 -59 9 -70 11 -26 6 -353 15 -358 10z"/>
<path d="M2350 3993 c-248 -35 -415 -89 -597 -193 -348 -200 -602 -534 -702
-920 -40 -156 -46 -208 -45 -395 0 -172 15 -274 60 -423 143 -474 530 -860
1004 -998 140 -41 237 -56 400 -59 298 -6 522 51 795 205 111 62 275 200 382
321 93 107 213 315 266 464 14 39 38 125 53 190 24 106 27 141 28 300 1 136
-4 204 -18 280 -44 236 -147 467 -292 656 -42 55 -162 180 -217 226 -164 139
-373 247 -580 302 -69 19 -96 24 -217 41 -55 8 -273 10 -320 3z"/>
</g>
</svg>
