<?xml version="1.0" standalone="no"?>
<!DOCTYPE svg PUBLIC "-//W3C//DTD SVG 20010904//EN"
 "http://www.w3.org/TR/2001/REC-SVG-20010904/DTD/svg10.dtd">
<svg version="1.0" xmlns="http://www.w3.org/2000/svg"
 width="256.000000pt" height="256.000000pt" viewBox="0 0 256.000000 256.000000"
 preserveAspectRatio="xMidYMid meet">
<metadata>
Created by potrace 1.14, written by Peter Selinger 2001-2017
</metadata>
<g transform="translate(0.000000,256.000000) scale(0.100000,-0.100000)"
fill="#000000" stroke="none">
<path d="M351 2453 c40 -60 73 -110 75 -112 5 -5 344 -4 349 1 2 2 -28 52 -68
111 l-72 106 -178 1 -177 0 71 -107z"/>
<path d="M1849 2457 c-37 -56 -115 -176 -175 -267 -150 -231 -253 -389 -279
-431 l-23 -36 79 -119 c43 -65 79 -122 79 -126 0 -35 14 -14 513 729 l236 352
-182 0 -182 0 -66 -102z"/>
<path d="M520 2192 c0 -1 178 -269 395 -594 l396 -590 -19 -32 c-24 -39 -382
-593 -404 -624 -15 -23 -18 -20 -169 202 -152 222 -154 224 -171 203 -10 -12
-52 -73 -95 -136 l-77 -114 19 -32 c11 -18 80 -132 154 -253 l134 -221 183 0
c178 0 184 0 200 22 9 12 96 155 195 317 98 162 187 309 198 325 11 17 62 101
115 188 l95 159 -391 586 c-215 323 -393 589 -395 592 -5 5 -363 7 -363 2z"/>
</g>
</svg>
