<?xml version="1.0" standalone="no"?>
<!DOCTYPE svg PUBLIC "-//W3C//DTD SVG 20010904//EN"
 "http://www.w3.org/TR/2001/REC-SVG-20010904/DTD/svg10.dtd">
<svg version="1.0" xmlns="http://www.w3.org/2000/svg"
 width="250.000000pt" height="250.000000pt" viewBox="0 0 250.000000 250.000000"
 preserveAspectRatio="xMidYMid meet">
<metadata>
Created by potrace 1.14, written by Peter Selinger 2001-2017
</metadata>
<g transform="translate(0.000000,250.000000) scale(0.100000,-0.100000)"
fill="#000000" stroke="none">
<path d="M1144 2220 c-121 -48 -185 -145 -192 -292 l-4 -88 -30 25 c-52 44
-136 23 -158 -39 -16 -47 -12 -491 5 -556 44 -168 188 -318 345 -360 l25 -6 5
-296 c5 -268 7 -298 23 -316 45 -50 124 -53 168 -6 24 26 24 26 29 322 5 287
6 297 25 300 11 2 49 18 85 35 129 61 239 203 269 345 6 30 11 156 11 292 l0
240 -27 30 c-40 45 -98 51 -140 16 l-31 -26 -4 88 c-5 98 -26 156 -77 215 -74
83 -222 119 -327 77z"/>
</g>
</svg>
